<svg width="37" height="23" viewBox="0 0 37 23" fill="none" xmlns="http://www.w3.org/2000/svg">
<path d="M10.5273 0C11.5924 0 12.5605 0.0910404 13.4406 0.285259C14.3161 0.482513 15.0641 0.78598 15.6938 1.21083C16.3159 1.63569 16.806 2.1971 17.1504 2.91025C17.4918 3.6234 17.6663 4.50345 17.6663 5.53524C17.6663 6.65807 17.4084 7.59881 16.897 8.35748C16.3842 9.11615 15.627 9.72308 14.618 10.2086C15.9927 10.6031 17.0093 11.3011 17.6861 12.2874C18.3658 13.2888 18.6951 14.4875 18.6951 15.8683C18.6951 17.0063 18.4978 17.9774 18.073 18.7967C17.6481 19.6313 17.0564 20.3141 16.3129 20.8451C15.5845 21.3732 14.7197 21.7555 13.7789 22.0089C12.8533 22.2593 11.8792 22.3943 10.8808 22.3943H0V0.010622H10.5273V0ZM25.7037 18.4538C26.3713 19.1032 27.3318 19.4295 28.5775 19.4295C29.4727 19.4295 30.2466 19.2049 30.899 18.7512C31.5424 18.3112 31.9308 17.8256 32.0825 17.3249H36.0094C35.3979 19.2671 34.4192 20.6631 33.1265 21.4976C31.8367 22.3473 30.2678 22.757 28.4531 22.757C27.1831 22.757 26.0496 22.5597 25.0057 22.1501C23.9845 21.7404 23.1242 21.1638 22.3959 20.4203C21.6918 19.6768 21.1471 18.7816 20.7617 17.7346C20.3778 16.6876 20.1957 15.5345 20.1957 14.2903C20.1957 13.0718 20.4006 11.9536 20.8072 10.9066C21.2169 9.84447 21.7844 8.96442 22.5066 8.19057C23.2577 7.41673 24.1196 6.83256 25.1407 6.37888C26.1619 5.92519 27.265 5.72187 28.5092 5.72187C29.89 5.72187 31.0735 5.97071 32.1205 6.51544C33.1371 7.03133 33.9716 7.75965 34.6392 8.6397C35.3069 9.52886 35.7772 10.5515 36.0655 11.7047C36.3538 12.8427 36.4449 14.0414 36.3842 15.316H24.7159C24.7159 16.5905 25.1407 17.7923 25.7932 18.4493L25.6718 18.4948L25.7037 18.4538ZM10.1661 18.5297C10.6471 18.5297 11.1069 18.4842 11.5408 18.3886C11.9809 18.2975 12.3723 18.1382 12.6986 17.9334C13.0172 17.7285 13.2903 17.4357 13.4876 17.0488C13.6848 16.6846 13.7759 16.1839 13.7759 15.5921C13.7759 14.4541 13.4421 13.6348 12.8048 13.1341C12.1523 12.6485 11.3026 12.4057 10.2405 12.4057H4.91617V18.5509H10.1661V18.5054V18.5297ZM30.8125 9.95675C30.2784 9.37258 29.3862 9.05849 28.2983 9.05849C27.5882 9.05849 27.001 9.17077 26.5291 9.41962C26.0708 9.64722 25.6945 9.95068 25.4063 10.3148C25.118 10.679 24.9253 11.0432 24.8115 11.4528C24.6977 11.8474 24.6294 12.2115 24.6066 12.5302H31.8322C31.726 11.3921 31.3314 10.5576 30.8004 9.96586V9.98103L30.8125 9.95675ZM9.89302 9.02359C10.764 9.02359 11.4862 8.82027 12.0552 8.39845C12.6227 7.98877 12.8958 7.30597 12.8958 6.36825C12.8958 5.84629 12.7896 5.41992 12.6227 5.08459C12.4255 4.75078 12.1675 4.49283 11.864 4.30771C11.5454 4.11956 11.1812 3.98907 10.7716 3.91776C10.3619 3.83734 9.92185 3.80548 9.497 3.80548H4.90099V9.02511H9.89302V9.02359ZM23.6977 1.50064H32.7532V3.70685H23.6977V1.48244V1.49761V1.50064Z" fill="black"/>
</svg>
