<svg width="30" height="30" viewBox="0 0 30 30" fill="none" xmlns="http://www.w3.org/2000/svg">
<path d="M25.0493 25.0554H20.6954V18.2329C20.6954 16.606 20.6623 14.5124 18.4265 14.5124C16.1564 14.5124 15.8097 16.2826 15.8097 18.1129V25.0554H11.4558V11.0258H15.6382V12.9381H15.6946C16.2789 11.8355 17.7 10.6717 19.8231 10.6717C24.2346 10.6717 25.0505 13.5752 25.0505 17.3546L25.0493 25.0554ZM6.53828 9.10606C5.13678 9.10606 4.01093 7.97163 4.01093 6.57626C4.01093 5.18211 5.13801 4.04891 6.53828 4.04891C7.93487 4.04891 9.06685 5.18211 9.06685 6.57626C9.06685 7.97163 7.93365 9.10606 6.53828 9.10606ZM8.72138 25.0554H4.35518V11.0258H8.72138V25.0554ZM27.2275 0H2.16963C0.970267 0 0 0.948216 0 2.11817V27.2839C0 28.455 0.970267 29.402 2.16963 29.402H27.2238C28.422 29.402 29.402 28.455 29.402 27.2839V2.11817C29.402 0.948216 28.422 0 27.2238 0L27.2275 0Z" fill="black"/>
</svg>
